<svg width="40" height="40" viewBox="0 0 40 40" fill="none" xmlns="http://www.w3.org/2000/svg">
<path d="M29.8058 3.01655C29.2771 2.71132 28.6195 2.67182 27.8646 2.86859C25.717 3.42837 23.2724 2.77302 21.8491 1.07027C21.2691 0.376478 20.6471 0 20 0C19.3529 0 18.731 0.376445 18.151 1.07018C16.7276 2.77291 14.283 3.42829 12.1354 2.86841C11.3805 2.67158 10.7227 2.71105 10.194 3.01631C9.64318 3.33434 9.27216 3.91787 9.07005 4.71918C8.54153 6.81456 6.81409 8.54202 4.7187 9.0705C3.91735 9.27261 3.3338 9.64363 3.01576 10.1945C2.71051 10.7232 2.67103 11.3809 2.86784 12.1358C3.42767 14.2833 2.77228 16.7278 1.06975 18.1514C0.37629 18.7312 2.82758e-08 19.353 0 20C-2.82776e-08 20.647 0.376347 21.2689 1.06991 21.8488C2.77248 23.2723 3.42782 25.7167 2.86814 27.8642C2.67142 28.6191 2.71093 29.2767 3.01614 29.8053C3.33422 30.3562 3.91788 30.7273 4.71939 30.9294C6.81487 31.4577 8.54238 33.1852 9.07083 35.2807C9.27293 36.0821 9.64396 36.6657 10.1948 36.9837C10.7234 37.2889 11.381 37.3284 12.1358 37.1318C14.2833 36.5721 16.7277 37.2275 18.1512 38.93C18.7311 39.6236 19.353 40 20 40C20.647 40 21.269 39.6236 21.8489 38.93C23.2723 37.2273 25.7167 36.5721 27.8643 37.1316C28.619 37.3282 29.2764 37.2886 29.805 36.9835C30.3558 36.6655 30.7268 36.082 30.9289 35.2807C31.4575 33.1854 33.1849 31.458 35.2802 30.9294C36.0814 30.7273 36.6649 30.3563 36.9829 29.8054C37.2881 29.2769 37.3276 28.6194 37.131 27.8647C36.5714 25.7171 37.2267 23.2725 38.9295 21.8492C39.6234 21.2692 40 20.6472 40 20C40 19.3529 39.6235 18.7309 38.9297 18.1509C37.2269 16.7275 36.5716 14.283 37.1313 12.1354C37.328 11.3806 37.2885 10.723 36.9833 10.1943C36.6653 9.64359 36.082 9.27261 35.2809 9.07048C33.1857 8.54177 31.4583 6.81445 30.9297 4.71918C30.7276 3.91799 30.3566 3.33454 29.8058 3.01655Z" fill="url(#paint0_radial_15677_13368)"/>
<path fill-rule="evenodd" clip-rule="evenodd" d="M10.832 14.5009C10.832 12.4759 12.4737 10.8342 14.4987 10.8342H25.4987C27.5237 10.8342 29.1654 12.4759 29.1654 14.5009V25.5009C29.1654 27.5259 27.5237 29.1676 25.4987 29.1676H14.4987C12.4737 29.1676 10.832 27.5259 10.832 25.5009V14.5009ZM15.4148 14.501C14.9086 14.501 14.4981 14.9114 14.4981 15.4176C14.4981 15.9239 14.9085 16.3343 15.4148 16.3343H23.6648C24.1711 16.3343 24.5815 15.9239 24.5815 15.4176C24.5815 14.9114 24.1711 14.501 23.6648 14.501H15.4148ZM15.4147 18.1679C14.9085 18.1679 14.498 18.5783 14.498 19.0845C14.498 19.5908 14.9085 20.0012 15.4147 20.0012H19.0814C19.5876 20.0012 19.998 19.5908 19.998 19.0845C19.998 18.5783 19.5876 18.1679 19.0814 18.1679H15.4147ZM22.2568 24.3057C22.2568 25.6663 22.9264 26.8516 24.57 26.8516C26.1849 26.8516 26.8831 25.6699 26.8831 24.2878C26.8831 22.9665 26.2995 21.7275 24.57 21.7275C23.0016 21.7275 22.2568 22.8841 22.2568 24.3057ZM25.1895 24.2878C25.1895 24.9108 24.9639 25.2868 24.57 25.2868C24.1797 25.2868 23.9505 24.9108 23.9505 24.2878C23.9505 23.6719 24.1797 23.2923 24.5664 23.2923C24.9603 23.2923 25.1895 23.6683 25.1895 24.2878Z" fill="url(#paint1_radial_15677_13368)"/>
<defs>
<radialGradient id="paint0_radial_15677_13368" cx="0" cy="0" r="1" gradientUnits="userSpaceOnUse" gradientTransform="translate(27.7419 40) rotate(-140.179) scale(42.0001 75.775)">
<stop stop-color="#1263F1"/>
<stop offset="1" stop-color="#009EF8" stop-opacity="0.14"/>
</radialGradient>
<radialGradient id="paint1_radial_15677_13368" cx="0" cy="0" r="1" gradientUnits="userSpaceOnUse" gradientTransform="translate(30.8978 35.7632) rotate(-148.527) scale(61.1179 120.55)">
<stop stop-color="#B4EDFF"/>
<stop offset="1" stop-color="#0063FF" stop-opacity="0.81"/>
</radialGradient>
</defs>
</svg>
