<svg width="40" height="40" viewBox="0 0 40 40" fill="none" xmlns="http://www.w3.org/2000/svg">
<path d="M29.8058 3.01655C29.2771 2.71132 28.6195 2.67182 27.8646 2.86859C25.717 3.42837 23.2724 2.77302 21.8491 1.07027C21.2691 0.376478 20.6471 0 20 0C19.3529 0 18.731 0.376445 18.151 1.07018C16.7276 2.77291 14.283 3.42829 12.1354 2.86841C11.3805 2.67158 10.7227 2.71105 10.194 3.01631C9.64318 3.33434 9.27216 3.91787 9.07005 4.71918C8.54153 6.81456 6.81409 8.54202 4.7187 9.0705C3.91735 9.27261 3.3338 9.64363 3.01576 10.1945C2.71051 10.7232 2.67103 11.3809 2.86784 12.1358C3.42767 14.2833 2.77228 16.7278 1.06975 18.1514C0.37629 18.7312 2.82758e-08 19.353 0 20C-2.82776e-08 20.647 0.376347 21.2689 1.06991 21.8488C2.77248 23.2723 3.42782 25.7167 2.86814 27.8642C2.67142 28.6191 2.71093 29.2767 3.01614 29.8053C3.33422 30.3562 3.91788 30.7273 4.71939 30.9294C6.81487 31.4577 8.54238 33.1852 9.07083 35.2807C9.27293 36.0821 9.64396 36.6657 10.1948 36.9837C10.7234 37.2889 11.381 37.3284 12.1358 37.1318C14.2833 36.5721 16.7277 37.2275 18.1512 38.93C18.7311 39.6236 19.353 40 20 40C20.647 40 21.269 39.6236 21.8489 38.93C23.2723 37.2273 25.7167 36.5721 27.8643 37.1316C28.619 37.3282 29.2764 37.2886 29.805 36.9835C30.3558 36.6655 30.7268 36.082 30.9289 35.2807C31.4575 33.1854 33.1849 31.458 35.2802 30.9294C36.0814 30.7273 36.6649 30.3563 36.9829 29.8054C37.2881 29.2769 37.3276 28.6194 37.131 27.8647C36.5714 25.7171 37.2267 23.2725 38.9295 21.8492C39.6234 21.2692 40 20.6472 40 20C40 19.3529 39.6235 18.7309 38.9297 18.1509C37.2269 16.7275 36.5716 14.283 37.1313 12.1354C37.328 11.3806 37.2885 10.723 36.9833 10.1943C36.6653 9.64359 36.082 9.27261 35.2809 9.07048C33.1857 8.54177 31.4583 6.81445 30.9297 4.71918C30.7276 3.91799 30.3566 3.33454 29.8058 3.01655Z" fill="url(#paint0_radial_15677_13360)"/>
<g clip-path="url(#clip0_15677_13360)">
<path d="M28.2688 15.0638H25.1867C25.6456 14.5039 25.8717 13.7889 25.8181 13.067C25.7645 12.3451 25.4354 11.6714 24.8988 11.1854C24.3622 10.6994 23.6594 10.4383 22.9356 10.4562C22.2119 10.4741 21.5228 10.7696 21.0109 11.2815C20.8068 11.4942 20.6384 11.7387 20.5124 12.0052C20.3863 11.7387 20.2179 11.4942 20.0137 11.2814C19.5018 10.7695 18.8127 10.4741 18.089 10.4562C17.3653 10.4383 16.6624 10.6994 16.1259 11.1854C15.5893 11.6714 15.2602 12.3451 15.2066 13.067C15.153 13.789 15.3791 14.5039 15.838 15.0638H12.756C12.3821 15.0642 12.0236 15.2129 11.7592 15.4773C11.4948 15.7417 11.3461 16.1001 11.3457 16.474V19.2945C11.3461 19.6684 11.4948 20.0269 11.7592 20.2913C12.0236 20.5556 12.3821 20.7044 12.756 20.7048V26.3458C12.7564 26.7197 12.9051 27.0782 13.1695 27.3425C13.4339 27.6069 13.7923 27.7556 14.1662 27.7561H26.8585C27.2324 27.7556 27.5909 27.6069 27.8553 27.3425C28.1196 27.0782 28.2684 26.7197 28.2688 26.3458V20.7048C28.6427 20.7044 29.0011 20.5556 29.2655 20.2913C29.5299 20.0269 29.6786 19.6684 29.679 19.2945V16.474C29.6786 16.1001 29.5299 15.7417 29.2655 15.4773C29.0011 15.2129 28.6427 15.0642 28.2688 15.0638V15.0638ZM22.0081 12.2787C22.139 12.1477 22.2945 12.0437 22.4656 11.9728C22.6367 11.9019 22.8202 11.8654 23.0054 11.8654C23.1906 11.8653 23.374 11.9018 23.5452 11.9727C23.7163 12.0435 23.8718 12.1474 24.0028 12.2784C24.1338 12.4094 24.2376 12.5649 24.3085 12.736C24.3794 12.9071 24.4159 13.0906 24.4158 13.2758C24.4158 13.461 24.3793 13.6444 24.3084 13.8156C24.2375 13.9867 24.1336 14.1421 24.0025 14.2731C23.5671 14.7086 22.308 14.9532 21.2475 15.0337C21.3281 13.9732 21.5726 12.7142 22.0081 12.2787ZM17.0221 12.2787C17.2868 12.0146 17.6454 11.8663 18.0193 11.8663C18.3932 11.8663 18.7519 12.0146 19.0166 12.2787C19.4521 12.7142 19.6966 13.9733 19.7772 15.0337C18.7167 14.9531 17.4576 14.7086 17.0222 14.2731C16.7581 14.0084 16.6098 13.6498 16.6098 13.2759C16.6098 12.902 16.7581 12.5434 17.0221 12.2787ZM28.2688 19.2945H21.2175V25.6407C21.2175 25.8277 21.1432 26.007 21.011 26.1393C20.8787 26.2715 20.6994 26.3458 20.5124 26.3458C20.3254 26.3458 20.146 26.2715 20.0138 26.1393C19.8815 26.007 19.8072 25.8277 19.8072 25.6407V19.2945H12.756V16.474H19.8072V19.2945H21.2175V16.474H28.2688L28.2696 19.2945L28.2688 19.2945Z" fill="url(#paint1_radial_15677_13360)"/>
</g>
<defs>
<radialGradient id="paint0_radial_15677_13360" cx="0" cy="0" r="1" gradientUnits="userSpaceOnUse" gradientTransform="translate(27.7419 40) rotate(-140.179) scale(42.0001 75.775)">
<stop stop-color="#1263F1"/>
<stop offset="1" stop-color="#009EF8" stop-opacity="0.14"/>
</radialGradient>
<radialGradient id="paint1_radial_15677_13360" cx="0" cy="0" r="1" gradientUnits="userSpaceOnUse" gradientTransform="translate(31.4115 33.9803) rotate(-149.986) scale(60.1991 115.496)">
<stop stop-color="#B4EDFF"/>
<stop offset="1" stop-color="#0063FF" stop-opacity="0.81"/>
</radialGradient>
<clipPath id="clip0_15677_13360">
<rect width="22.5641" height="22.5641" fill="white" transform="translate(9.23145 8.71777)"/>
</clipPath>
</defs>
</svg>
